<?xml version="1.0" encoding="utf-8"?>
<!-- Generator: Adobe Illustrator 15.1.0, SVG Export Plug-In . SVG Version: 6.00 three 0)  -->
<!DOCTYPE svg PUBLIC "-//W3C//DTD SVG 1.1//EN" "http://www.w3.org/Graphics/SVG/1.1/DTD/svg11.dtd">
<svg version="1.1" id="InteractiveSVG" xmlns="http://www.w3.org/2000/svg" xmlns:xlink="http://www.w3.org/1999/xlink" x="0px"
	 y="0px" width="1024px" height="1388px" viewBox="0 0 1024 1388" enable-background="new 0 0 1024 1388" xml:space="preserve">

<g id="timeline">
	<g id="one">
		<rect x="505.545" y="50" fill="#5B4F35" width="17" height="180"/>
		<polyline fill="#5B4F35" points="509.334,134.132 497.023,143.456 514.566,154.415 		"/>
		<g>
			<text transform="matrix(1 0 0 1 565.5449 144.2139)" fill="#5B4F35" font-family="'LeagueGothic'" font-size="29">2017</text>
		</g>
		<g id="one-badge">
			<circle fill="#5B4F35" cx="311.581" cy="134.273" r="130.5"/>
			<g id="one-title">
				<text transform="matrix(1 0 0 1 288.416 40.2793)" fill="#FFFFFF" font-family="'LeagueGothic'" font-size="28">TOUGH</text>
				<text transform="matrix(1 0 0 1 267.416 70.2793)" fill="#FFFFFF" font-family="'LeagueGothic'" font-size="28">BEGINNINGS</text>
			</g>
			<g id="one-details">
				<rect x="219.11" y="530.174" fill="none" width="187" height="68"/>
				<text transform="matrix(1 0 0 1 219.7134 143.4023)" fill="#CEB995" font-family="'LeagueGothic'" font-size="18">twoERS DRINK AN AVERAGE OF 380 </text>
				<text transform="matrix(1 0 0 1 249.6372 165.0039)" fill="#CEB995" font-family="'LeagueGothic'" font-size="18">CUPS OF one PER YEAR</text>
			</g>
		</g>
	</g>
	<g id="two">
		<rect x="505.545" y="550" fill="#D1652F" width="17" height="120"/>
		<polyline fill="#D1652F" points="520.256,614.415 532.566,605.092 515.023,594.132 		"/>
		<text transform="matrix(1 0 0 1 413.2793 616.6328)" fill="#D1652F" font-family="'LeagueGothic'" font-size="28.2251">2018</text>
		<g id="two-badge">
			<circle fill="#D1652F" cx="711" cy="604.5" r="130.5"/>
			<g id="two-title">
				<text transform="matrix(1 0 0 1 682.4639 523.5059)" fill="#FFFFFF" font-family="'LeagueGothic'" font-size="28.2251">COMEBACK</text>
			</g>
			<g id="two-details">
				<rect x="616.468" y="650.4" fill="none" width="187" height="68"/>
				<text transform="matrix(1 0 0 1 630.1738 663.6289)" fill="#E8AD67" font-family="'LeagueGothic'" font-size="18">WORLDWIDE, A NEW WEB PAGE IS </text>
				<text transform="matrix(1 0 0 1 637.2568 685.2305)" fill="#E8AD67" font-family="'LeagueGothic'" font-size="18">twoED EVERY 0.4 SECONDS</text>
			</g>
		</g>
	</g>
	<g id="three">
		<rect x="505.545" y="674" fill="#B1C482" width="17" height="120"/>
		<polyline fill="#B1C482" points="509.334,731.133 497.023,740.455 514.566,751.415 		"/>
		<text transform="matrix(1 0 0 1 558.6953 745.7109)" fill="#B1C482" font-family="'LeagueGothic'" font-size="28.2251">2019</text>
		<g id="three-badge">
			<circle fill="#B1C482" cx="311" cy="730.5" r="130.5"/>
			<g id="three-title">
				<text transform="matrix(1 0 0 1 287.0991 691.5059)" fill="#FFFFFF" font-family="'LeagueGothic'" font-size="28.2251">THREE</text>
			</g>
			<g id="three-details">
				<rect x="215.893" y="818.4" fill="none" width="187" height="68"/>
				<text transform="matrix(1 0 0 1 226.1045 831.6289)" fill="#EBF4CE" font-family="'LeagueGothic'" font-size="18">64% OF WEB twoERS CONSIDER</text>
				<text transform="matrix(1 0 0 1 244.9507 853.2305)" fill="#EBF4CE" font-family="'LeagueGothic'" font-size="18">THEMSELVES SELF-TAUGHT</text>
			</g>
		</g>
	</g>
	<g id="four">
		<rect x="505.545" y="800" fill="#6DBACC" width="17" height="120"/>
		<polyline fill="#6DBACC" points="520.256,820.415 532.566,811.092 515.023,800.133 		"/>
		<text transform="matrix(1 0 0 1 407.2793 867.6328)" fill="#6DBACC" font-family="'LeagueGothic'" font-size="28.2251">2020</text>
		<g id="four-badge">
			<circle fill="#6DBACC" cx="717" cy="820.5" r="130.5"/>
			<g id="four-title">
				<text transform="matrix(1 0 0 1 680.0996 916.1816)" fill="#FFFFFF" font-family="'LeagueGothic'" font-size="24.3935">FOUR</text>
				<text transform="matrix(1 0 0 1 684.5508 940.2686)" fill="#FFFFFF" font-family="'LeagueGothic'" font-size="24.3935">ABOUT IE</text>
			</g>
			<g id="four-details">
				<rect x="622.892" y="1046.4" fill="none" width="187" height="68"/>
				<text transform="matrix(1 0 0 1 637.332 1059.6289)" fill="#B9E4EA" font-family="'LeagueGothic'" font-size="18">BROWSER QUIRKS CAN INCREASE </text>
				<text transform="matrix(1 0 0 1 646.9707 1081.2305)" fill="#B9E4EA" font-family="'LeagueGothic'" font-size="18">PRODUCTION TIME UP TO 71%</text>
			</g>
		</g>
	</g>
	<g id="beer">
		<rect x="505.545" y="1143" fill="#EAB83D" width="17" height="110"/>
		<polyline fill="#EAB83D" points="509.334,1190.133 497.023,1199.455 514.566,1210.415 		"/>
		<text transform="matrix(1 0 0 1 558.6953 1206.0137)" fill="#EAB83D" font-family="'LeagueGothic'" font-size="28.2251">3PM</text>
		<g id="beer-badge">
			<circle fill="#EAB83D" cx="313" cy="1190.5" r="130.5"/>
			<g id="beer-title">
				<text transform="matrix(1 0 0 1 290.5708 1109.5059)" fill="#FFFFFF" font-family="'LeagueGothic'" font-size="28.2251">BEER</text>
			</g>
			<g id="beer-details">
				<rect x="217.893" y="1236.4" fill="none" width="187" height="68"/>
				<text transform="matrix(1 0 0 1 236.0879 1249.6289)" fill="#EBF4CE" font-family="'LeagueGothic'" font-size="18">HEINEKEN IS THE #1 CHOICE OF</text>
				<text transform="matrix(1 0 0 1 240.1099 1271.2305)" fill="#EBF4CE" font-family="'LeagueGothic'" font-size="18">BEER AMONG WEB twoERS</text>
			</g>
		</g>
	</g>
</g>
</svg>
