<?xml version="1.0" encoding="utf-8"?>
<!-- Generator: Adobe Illustrator 15.1.0, SVG Export Plug-In . SVG Version: 6.00 three 0)  -->
<!DOCTYPE svg PUBLIC "-//W3C//DTD SVG 1.1//EN" "http://www.w3.org/Graphics/SVG/1.1/DTD/svg11.dtd">
<svg version="1.1" id="InteractiveSVG" xmlns="http://www.w3.org/2000/svg" xmlns:xlink="http://www.w3.org/1999/xlink" x="0px"
	 y="0px" width="1024px" height="1388px" viewBox="0 0 1024 1388" enable-background="new 0 0 1024 1388" xml:space="preserve">
<g id="background">
	<rect y="297.986" fill="#E8EFEF" width="1023.91" height="1090"/>
	<g>
		<line fill="none" stroke="#CADBDD" stroke-miterlimit="10" x1="950.369" y1="1252.486" x2="565.455" y2="1252.486"/>
		<line fill="none" stroke="#CADBDD" stroke-miterlimit="10" x1="950.369" y1="1177.577" x2="565.455" y2="1177.577"/>
		<line fill="none" stroke="#CADBDD" stroke-miterlimit="10" x1="950.369" y1="1102.668" x2="565.455" y2="1102.668"/>
		<line fill="none" stroke="#CADBDD" stroke-miterlimit="10" x1="950.369" y1="1027.758" x2="565.455" y2="1027.758"/>
		<line fill="none" stroke="#CADBDD" stroke-miterlimit="10" x1="950.369" y1="952.85" x2="565.455" y2="952.85"/>
		<line fill="none" stroke="#CADBDD" stroke-miterlimit="10" x1="950.369" y1="877.94" x2="565.455" y2="877.94"/>
		<line fill="none" stroke="#CADBDD" stroke-miterlimit="10" x1="950.369" y1="803.031" x2="565.455" y2="803.031"/>
		<line fill="none" stroke="#CADBDD" stroke-miterlimit="10" x1="950.369" y1="728.123" x2="565.455" y2="728.122"/>
		<line fill="none" stroke="#CADBDD" stroke-miterlimit="10" x1="950.369" y1="653.214" x2="565.455" y2="653.214"/>
		<line fill="none" stroke="#CADBDD" stroke-miterlimit="10" x1="950.369" y1="578.305" x2="565.455" y2="578.305"/>
		<line fill="none" stroke="#CADBDD" stroke-miterlimit="10" x1="950.369" y1="503.396" x2="565.455" y2="503.396"/>
		<line fill="none" stroke="#CADBDD" stroke-miterlimit="10" x1="950.369" y1="428.486" x2="565.455" y2="428.486"/>
	</g>
	<g>
		<line fill="none" stroke="#CADBDD" stroke-miterlimit="10" x1="458.454" y1="1252.486" x2="89.467" y2="1252.486"/>
		<line fill="none" stroke="#CADBDD" stroke-miterlimit="10" x1="458.454" y1="1177.577" x2="89.467" y2="1177.577"/>
		<line fill="none" stroke="#CADBDD" stroke-miterlimit="10" x1="458.454" y1="1102.668" x2="89.467" y2="1102.668"/>
		<line fill="none" stroke="#CADBDD" stroke-miterlimit="10" x1="458.454" y1="1027.758" x2="89.467" y2="1027.758"/>
		<line fill="none" stroke="#CADBDD" stroke-miterlimit="10" x1="458.454" y1="952.85" x2="89.467" y2="952.85"/>
		<line fill="none" stroke="#CADBDD" stroke-miterlimit="10" x1="458.454" y1="877.94" x2="89.467" y2="877.94"/>
		<line fill="none" stroke="#CADBDD" stroke-miterlimit="10" x1="458.454" y1="803.031" x2="89.467" y2="803.031"/>
		<line fill="none" stroke="#CADBDD" stroke-miterlimit="10" x1="458.454" y1="728.122" x2="89.467" y2="728.122"/>
		<line fill="none" stroke="#CADBDD" stroke-miterlimit="10" x1="458.454" y1="653.214" x2="89.467" y2="653.214"/>
		<line fill="none" stroke="#CADBDD" stroke-miterlimit="10" x1="458.454" y1="578.305" x2="89.467" y2="578.305"/>
		<line fill="none" stroke="#CADBDD" stroke-miterlimit="10" x1="458.454" y1="503.396" x2="89.467" y2="503.396"/>
		<line fill="none" stroke="#CADBDD" stroke-miterlimit="10" x1="458.454" y1="428.486" x2="89.467" y2="428.486"/>
	</g>
</g>
<g id="logo">
	<polygon fill="#29374F" points="352.838,87 215.212,87 207.643,87 133.325,87 141.86,103 133.325,119 207.643,119 215.212,119
		352.838,119 344.303,103 	"/>
	<g>
		<path fill="#898989" d="M240.025,140.953c-2.743,3.468-7.661,1.842-5.094-2.566l0.881-1.509l1-1.744
			c1.175-2.038,2.39-2.665,3.958-2.665c1.92,0,3.056,2.018,1.822,4.153l-1.92,3.311c1.019-0.02,2.155-0.509,3.076-1.508l0.137-0.157
			c0.274,0.118,0.627,0.431,0.764,0.705c-1.039,1.234-2.958,1.979-4.173,1.979L240.025,140.953L240.025,140.953z M239.438,138.406
			h0.098l1.489-2.547c1.234-2.116-0.725-3.076-2.155-0.646l-0.98,1.666l-1.548,2.684c-1.214,2.116,1.117,2.429,2.077,0.784
			l0.02-0.039c-0.118-0.196-0.196-0.431-0.196-0.686C238.243,138.955,238.771,138.406,239.438,138.406z"/>
		<path fill="#898989" d="M251.171,138.269c0.274,0.118,0.627,0.431,0.764,0.705c-2.312,2.684-5.016,3.272-7.014,3.39
			c0.196,0.568,0.176,1.332-0.235,2.057l-1.528,2.684c-2.175,3.821-5.31,1.646-3.742-1.078l8.425-14.635
			c2.665-4.624,7.073-3.311,4.722,0.764l-3.271,5.662c-1.039,1.783-2.724,2.939-4.115,3.664c1.626-0.118,3.84-0.725,5.858-3.056
			L251.171,138.269z M243.549,142.403h-0.176l-2.312,3.958c-0.842,1.431,0,1.783,0.706,0.568l1.704-2.998
			C243.882,143.167,243.882,142.618,243.549,142.403z M244.196,140.973c1.606-0.705,2.958-2.41,3.86-3.958l3.174-5.505
			c0.999-1.842-0.411-1.92-1.509-0.02L244.196,140.973z"/>
		<path fill="#898989" d="M266.763,138.269c0.274,0.118,0.627,0.431,0.764,0.705c-1.685,1.959-3.624,3.762-5.31,3.762
			c-1.038,0-1.665-0.548-1.763-1.332c-0.98,0.803-1.999,1.332-2.821,1.332c-1.646,0-2.254-1.391-1.392-2.899l2.86-4.938
			c0.862-1.489,2.391-2.351,3.487-2.351c1.333,0,2.214,1.195,2.136,2.057h1.156l-3.292,5.76c-0.47,0.803-0.215,1.117,0.235,1.117
			c0.901,0,2.332-1.352,3.801-3.056L266.763,138.269z M258.005,140.365c-0.471,0.803-0.216,1.117,0.235,1.117
			c0.842,0,2.057-0.921,3.291-2.86l1.587-2.782c0.999-1.841-1.176-2.332-2.272-0.431L258.005,140.365z"/>
	</g>
	<g>
		<path fill="#898989" d="M203.398,71.706l4.994-8.563h-3.274v-1.719h10.299v1.719h-3.373l4.994,8.563h3.52v1.719h-8.58v-1.719
			h3.013l-0.95-1.703h-7.63l-0.966,1.703h3.111v1.719h-8.58v-1.719H203.398z M213.075,68.284l-2.849-5.125l-2.865,5.125H213.075z"/>
		<path fill="#898989" d="M244.577,61.423c0.95,0,1.839,0.158,2.669,0.475c0.829,0.317,1.552,0.745,2.169,1.285
			c0.616,0.541,1.105,1.177,1.466,1.908c0.359,0.731,0.54,1.512,0.54,2.341c0,0.829-0.181,1.607-0.54,2.333
			c-0.36,0.726-0.85,1.359-1.466,1.899c-0.617,0.541-1.34,0.969-2.169,1.286c-0.83,0.316-1.72,0.475-2.669,0.475h-10.872v-1.719
			h3.438v-8.563h-3.438v-1.719L244.577,61.423L244.577,61.423z M244.479,71.706c0.709,0,1.375-0.112,1.998-0.335
			c0.622-0.224,1.167-0.529,1.637-0.917c0.47-0.387,0.838-0.84,1.104-1.359c0.267-0.519,0.401-1.073,0.401-1.662
			c0-0.589-0.134-1.146-0.401-1.67c-0.267-0.524-0.636-0.979-1.104-1.367c-0.47-0.387-1.015-0.693-1.637-0.917
			c-0.623-0.224-1.289-0.335-1.998-0.335h-5.632v8.563L244.479,71.706L244.479,71.706z"/>
		<path fill="#898989" d="M257.103,71.706l4.994-8.563h-3.275v-1.719h10.299v1.719h-3.372l4.993,8.563h3.521v1.719h-8.579v-1.719
			h3.012l-0.949-1.703h-7.63l-0.966,1.703h3.11v1.719h-8.579v-1.719H257.103z M266.779,68.284l-2.849-5.125l-2.866,5.125H266.779z"
			/>
		<path fill="#898989" d="M295.416,63.143h-2.996l-6.419,6.435v2.128h3.423v1.719h-8.58v-1.719h3.438v-2.112l-6.451-6.451h-2.996
			v-1.719h8.579v1.719h-3.209l4.929,5.043l4.912-5.043h-3.209v-1.719h8.579V63.143L295.416,63.143z"/>
	</g>
	<g>
		<g>
			<path fill="#29374F" d="M102.722,176.649c-0.014,0.061-0.02,0.091-0.034,0.151c-0.1,0.189-0.287,0.371-0.429,0.378
				c-0.041,0.002-0.064,0.039-0.118,0.026c0,0-0.065,0.038-0.173,0.013c0,0-0.066,0.038-0.12,0.026
				c-2.707-0.615-4.061-0.93-6.762-1.574c-0.378-0.09-0.576-0.457-0.587-0.884c-0.298-5.421-0.431-8.13-0.667-13.546
				c0.099-1.039,0.149-1.557,0.25-2.596c-0.374,0.971-0.561,1.457-0.935,2.428c-2.896,4.643-4.362,6.957-7.325,11.571
				c-0.276,0.41-0.556,0.604-0.987,0.493c-2.693-0.689-4.038-1.041-6.726-1.76c-0.053-0.014-0.041-0.064-0.094-0.079
				c-0.053-0.015-0.094-0.077-0.147-0.091c-0.054-0.015-0.043-0.066-0.043-0.066c-0.188-0.157-0.177-0.492-0.201-0.534
				c-0.008-0.014-0.04-0.065-0.04-0.065c0.011-0.04,0.016-0.059,0.027-0.099c2.052-11.349,4.136-22.691,6.254-34.028
				c0.095-0.348,0.493-0.615,0.898-0.504c2.394,0.652,3.592,0.972,5.99,1.599c0.406,0.106,0.672,0.549,0.581,0.898
				c-1.278,6.921-1.91,10.382-3.159,17.309c1.993-2.791,2.982-4.189,4.945-6.994c0.244-0.311,0.694-0.571,1.108-0.467
				c1.655,0.415,2.481,0.621,4.138,1.024c0.414,0.101,0.691,0.54,0.814,0.941c0.409,3.391,0.622,5.088,1.062,8.48
				c2.142-6.707,3.207-10.062,5.32-16.777c0.083-0.352,0.47-0.632,0.878-0.537c2.431,0.566,3.647,0.844,6.082,1.385
				c0.358,0.08,0.639,0.513,0.561,0.865C109.664,154.652,106.209,165.655,102.722,176.649z"/>
			<path fill="#29374F" d="M124.09,159.647c3.72,0.733,5.581,1.086,9.309,1.762c0.421,0.077,0.683,0.438,0.609,0.844
				c-0.436,2.418-0.653,3.627-1.088,6.045c-0.073,0.406-0.448,0.653-0.875,0.575c-3.773-0.685-5.657-1.042-9.422-1.784
				c-0.515,2.613-0.773,3.918-1.289,6.531c4.966,0.979,7.453,1.445,12.432,2.325c0.377,0.067,0.701,0.438,0.629,0.845
				c-0.424,2.42-0.636,3.629-1.061,6.049c-0.071,0.407-0.507,0.644-0.889,0.577c-7.94-1.403-11.903-2.165-19.807-3.818
				c-0.434-0.091-0.696-0.463-0.611-0.867c2.377-11.297,4.754-22.594,7.131-33.891c0.085-0.404,0.457-0.643,0.866-0.557
				c7.461,1.561,11.201,2.282,18.697,3.605c0.36,0.063,0.668,0.433,0.597,0.839c-0.424,2.42-0.636,3.628-1.061,6.048
				c-0.071,0.406-0.492,0.648-0.856,0.584c-4.816-0.851-7.221-1.3-12.023-2.248C124.863,155.727,124.605,157.034,124.09,159.647z"/>
			<path fill="#29374F" d="M165.775,168.591c-0.934,0.714-1.401,1.07-2.339,1.78c0.728,0.907,1.093,1.36,1.826,2.265
				c0.329,0.406,0.397,0.729,0.418,0.99c0.021,0.003,0.033,0.003,0.054,0.006c-0.493,3.913-0.74,5.868-1.233,9.781
				c0,0-0.035,0.724-0.768,1.255c-1.368,0.992-2.054,1.485-3.432,2.469c-0.738,0.528-1.5,0.373-1.5,0.373
				c-6.971-0.936-10.452-1.451-17.402-2.577c-0.437-0.071-0.714-0.429-0.647-0.837c1.861-11.393,3.723-22.786,5.583-34.18
				c0.066-0.407,0.426-0.663,0.838-0.596c6.56,1.063,9.846,1.551,16.426,2.434c0,0,0.73,0.046,1.271,0.742
				c1.009,1.299,1.518,1.949,2.538,3.244c0.546,0.694,0.403,1.403,0.403,1.403c-0.514,4.076-0.77,6.113-1.283,10.189
				C166.529,167.333,166.491,168.058,165.775,168.591z M152.911,157.896c-0.396,2.634-0.596,3.951-0.992,6.584
				c2.41,0.362,3.615,0.538,6.028,0.876c0.336-0.245,0.505-0.366,0.841-0.611c0.127-0.139,0.195-0.234,0.209-0.336
				c0.23-1.656,0.345-2.485,0.575-4.142c0,0,0.027-0.205-0.108-0.38c-0.308-0.397-0.462-0.595-0.769-0.993
				c-0.083-0.168-0.24-0.191-0.292-0.199C156.205,158.386,155.107,158.227,152.911,157.896z M149.801,178.568
				c2.465,0.371,3.698,0.55,6.166,0.896c0.343-0.244,0.515-0.366,0.857-0.61c0.129-0.138,0.2-0.233,0.214-0.336
				c0.23-1.656,0.343-2.485,0.573-4.141c0,0,0.029-0.203-0.11-0.378c-0.316-0.398-0.474-0.598-0.79-0.997
				c-0.093-0.117-0.246-0.191-0.3-0.199c-2.249-0.317-3.374-0.479-5.621-0.818C150.394,174.618,150.197,175.935,149.801,178.568z"/>
			<path fill="#29374F" d="M212.966,188.999c-1.285,1.094-1.93,1.639-3.225,2.727c-0.694,0.583-1.462,0.488-1.462,0.488
				c-7.008-0.394-10.511-0.639-17.508-1.224c-0.44-0.037-0.744-0.373-0.708-0.784c0.975-11.503,1.952-23.007,2.926-34.511
				c0.035-0.411,0.374-0.691,0.789-0.657c6.605,0.552,9.911,0.782,16.526,1.154c0,0,0.779,0.042,1.321,0.641
				c1.104,1.217,1.66,1.827,2.775,3.039c0.548,0.595,0.51,1.367,0.51,1.367c-0.51,10.579-0.765,15.87-1.274,26.449
				C213.635,187.688,213.654,188.413,212.966,188.999z M200.14,163.144c-0.602,8.34-0.903,12.51-1.504,20.85
				c2.481,0.179,3.722,0.262,6.204,0.417c0.323-0.27,0.484-0.403,0.806-0.673c0.119-0.148,0.179-0.248,0.185-0.354
				c0.447-7.357,0.672-11.036,1.12-18.393c0,0,0.013-0.206-0.137-0.37c-0.337-0.372-0.506-0.559-0.842-0.931
				c-0.096-0.162-0.252-0.17-0.357-0.177C203.424,163.376,202.329,163.301,200.14,163.144z"/>
			<path fill="#29374F" d="M229.21,171.211c3.771,0.092,5.658,0.123,9.431,0.158c0.427,0.004,0.743,0.316,0.739,0.729
				c-0.02,2.457-0.029,3.686-0.049,6.142c-0.003,0.413-0.33,0.72-0.761,0.716c-3.818-0.035-5.729-0.068-9.546-0.161
				c-0.065,2.663-0.097,3.994-0.162,6.656c5.035,0.123,7.554,0.16,12.59,0.183c0.382,0.002,0.762,0.313,0.761,0.726
				c-0.008,2.457-0.012,3.686-0.021,6.142c-0.001,0.413-0.389,0.721-0.775,0.719c-8.031-0.037-12.047-0.12-20.074-0.408
				c-0.441-0.016-0.758-0.335-0.743-0.749c0.425-11.537,0.854-23.074,1.281-34.61c0.015-0.413,0.339-0.71,0.755-0.695
				c7.577,0.271,11.367,0.349,18.948,0.384c0.365,0.001,0.729,0.313,0.727,0.725c-0.008,2.457-0.014,3.686-0.022,6.143
				c-0.001,0.413-0.371,0.721-0.74,0.719c-4.871-0.022-7.308-0.059-12.177-0.178C229.307,167.216,229.275,168.549,229.21,171.211z"
				/>
			<path fill="#29374F" d="M272.938,161.287c0.022,0.02,0.032,0.029,0.054,0.048c0.099,2.125,0.149,3.186,0.249,5.311
				c0.019,0.412-0.338,0.74-0.762,0.759c-2.5,0.114-3.749,0.164-6.249,0.252c-0.424,0.015-0.751-0.284-0.766-0.696
				c-0.035-1.032-0.054-1.547-0.089-2.579c-2.614,0.089-3.92,0.126-6.535,0.188c-0.105,0.002-0.21,0.005-0.365,0.164
				c-0.33,0.338-0.495,0.506-0.825,0.844c-0.208,0.21-0.204,0.418-0.204,0.418c0.035,1.672,0.054,2.508,0.089,4.18
				c0.021-0.021,0.031-0.032,0.052-0.053c0,0-0.049,0.207,0.169,0.409c0.304,0.282,0.457,0.425,0.762,0.707
				c3.985-0.09,5.977-0.152,9.96-0.306c0,0,0.741-0.133,1.408,0.511c1.241,1.106,1.864,1.657,3.116,2.757
				c0.672,0.59,0.653,1.314,0.653,1.314c0.229,4.888,0.342,7.332,0.57,12.22c0,0,0.089,0.719-0.541,1.368
				c-1.175,1.211-1.765,1.815-2.951,3.021c-0.635,0.646-1.411,0.624-1.411,0.624c-5.711,0.221-8.567,0.3-14.281,0.395
				c0,0-0.771,0.064-1.441-0.546c-1.251-1.138-1.875-1.708-3.114-2.853c-0.665-0.613-0.561-1.337-0.561-1.337
				s-0.055-0.051-0.056-0.103c-0.017-2.002-0.025-3.004-0.042-5.007c-0.003-0.413,0.374-0.726,0.808-0.73
				c2.561-0.025,3.841-0.044,6.401-0.096c0.433-0.009,0.765,0.295,0.773,0.708c0.02,0.929,0.03,1.393,0.05,2.321
				c2.747-0.058,4.119-0.094,6.866-0.182c0.108-0.003,0.161-0.058,0.267-0.164c0.359-0.342,0.541-0.514,0.899-0.856
				c0.157-0.212,0.148-0.417,0.148-0.417c-0.053-1.547-0.079-2.323-0.132-3.87c0,0-0.005-0.205-0.175-0.406
				c-0.378-0.318-0.568-0.477-0.945-0.795c-0.111-0.1-0.168-0.149-0.275-0.146c-3.882,0.124-5.823,0.17-9.706,0.234
				c0,0-0.754,0.065-1.41-0.544c-1.224-1.139-1.833-1.711-3.045-2.855c-0.65-0.613-0.548-1.337-0.548-1.337
				c-0.021,0-0.033,0.001-0.054,0.001c-0.042-4.893-0.063-7.34-0.104-12.233c0.021,0,0.032,0,0.053,0c0,0-0.112-0.721,0.512-1.346
				c1.162-1.167,1.741-1.753,2.891-2.926c0.616-0.68,1.345-0.588,1.345-0.588c5.393-0.089,8.089-0.163,13.48-0.372
				c0,0,0.724-0.132,1.376,0.513c1.214,1.107,1.824,1.66,3.048,2.762c0.657,0.59,0.639,1.312,0.639,1.312
				C272.968,161.284,272.958,161.286,272.938,161.287z"/>
			<path fill="#29374F" d="M287.388,156.508c0.812,11.464,1.625,22.928,2.436,34.392c0.029,0.412-0.279,0.744-0.72,0.774
				c-2.621,0.183-3.93,0.268-6.552,0.423c-0.441,0.026-0.789-0.263-0.813-0.675c-0.668-11.473-1.335-22.947-2.003-34.42
				c-0.024-0.412,0.271-0.741,0.688-0.766c2.476-0.147,3.712-0.226,6.187-0.398C287.026,155.809,287.359,156.097,287.388,156.508z"
				/>
			<path fill="#29374F" d="M308.285,176.772c-0.435,0.044-0.789-0.284-0.825-0.644c-0.246-2.444-0.369-3.667-0.615-6.111
				c-0.042-0.411,0.246-0.75,0.671-0.793c4.212-0.429,6.317-0.662,10.523-1.163c0.425-0.051,0.834,0.212,0.883,0.622
				c0.75,6.231,1.125,9.348,1.875,15.579c-0.021,0.002-0.033,0.004-0.055,0.006c-0.024,0.263-0.146,0.641-0.438,0.987
				c-1.085,1.294-1.629,1.94-2.727,3.229c-0.587,0.691-1.365,0.726-1.365,0.726c-5.688,0.639-8.535,0.927-14.233,1.438
				c0,0-0.768,0.121-1.481-0.438c-1.332-1.044-1.995-1.568-3.316-2.619c-0.708-0.563-0.658-1.293-0.658-1.293
				c-0.023-0.019-0.034-0.028-0.058-0.047c-0.862-10.536-1.292-15.802-2.153-26.338c0.021-0.001,0.031-0.002,0.052-0.004
				c0,0-0.165-0.711,0.411-1.38c1.075-1.249,1.611-1.875,2.674-3.129c0.569-0.671,1.3-0.685,1.3-0.685
				c5.379-0.483,8.067-0.755,13.438-1.358c0,0,0.719-0.133,1.409,0.411c1.294,1.016,1.94,1.521,3.245,2.53
				c0.698,0.54,0.735,1.264,0.735,1.264c-0.021,0.002-0.031,0.004-0.052,0.007c0.021,0.018,0.034,0.027,0.059,0.045
				c0.262,2.173,0.395,3.258,0.653,5.431c0.043,0.359-0.283,0.763-0.705,0.813c-2.49,0.296-3.733,0.438-6.229,0.709
				c-0.422,0.046-0.774-0.279-0.813-0.638c-0.061-0.534-0.087-0.801-0.146-1.334c0,0-0.021-0.206-0.193-0.343
				c-0.396-0.311-0.595-0.465-0.986-0.776c-0.122-0.143-0.28-0.127-0.385-0.116c-2.038,0.214-3.057,0.318-5.096,0.515
				c-0.105,0.01-0.208,0.021-0.352,0.191c-0.303,0.382-0.455,0.572-0.759,0.954c-0.196,0.174-0.177,0.378-0.177,0.378
				c0.693,7.338,1.041,11.007,1.734,18.345c0.064,0.098,0.075,0.202,0.251,0.34c0.31,0.261,0.463,0.39,0.773,0.651
				c2.543-0.244,3.813-0.372,6.354-0.641c0.273-0.32,0.411-0.48,0.688-0.8c0.092-0.166,0.134-0.274,0.123-0.377
				c-0.194-1.806-0.291-2.709-0.485-4.515C310.417,176.553,309.707,176.627,308.285,176.772z"/>
			<path fill="#29374F" d="M347.71,148.985c1.961,11.376,3.922,22.753,5.884,34.13c0.063,0.354-0.204,0.769-0.641,0.844
				c-3.449,0.59-5.176,0.872-8.63,1.415c-0.438,0.069-0.876-0.229-1.099-0.56c-3.725-6.399-5.552-9.611-9.137-16.059
				c0.989,6.824,1.483,10.236,2.472,17.061c0.056,0.357-0.276,0.771-0.66,0.826c-2.605,0.374-3.909,0.553-6.521,0.901
				c-0.438,0.059-0.813-0.256-0.863-0.614c-1.51-11.445-3.021-22.891-4.528-34.336c-0.058-0.409,0.216-0.756,0.63-0.812
				c3.083-0.411,4.624-0.626,7.703-1.076c0.358-0.053,0.652,0.164,0.828,0.608c0.021-0.003,0.027-0.005,0.052-0.008
				c3.894,7.481,5.884,11.208,9.954,18.63c0.079,0.217,0.119,0.325,0.193,0.542c-1.29-8.094-1.935-12.141-3.225-20.235
				c-0.065-0.408,0.247-0.77,0.608-0.828c2.452-0.394,3.682-0.599,6.133-1.018C347.279,148.326,347.64,148.579,347.71,148.985z"/>
			<path fill="#29374F" d="M364.702,159.649c3.72-0.733,5.578-1.114,9.289-1.905c0.419-0.089,0.798,0.145,0.885,0.549
				c0.515,2.402,0.772,3.604,1.287,6.006c0.086,0.403-0.166,0.775-0.591,0.866c-3.756,0.8-5.64,1.187-9.401,1.929
				c0.515,2.613,0.772,3.918,1.287,6.531c4.966-0.979,7.445-1.494,12.396-2.573c0.375-0.082,0.816,0.14,0.905,0.543
				c0.526,2.4,0.792,3.599,1.317,5.999c0.088,0.404-0.229,0.789-0.606,0.871c-7.894,1.721-11.851,2.518-19.782,3.987
				c-0.436,0.081-0.815-0.163-0.894-0.569c-2.09-11.354-4.18-22.707-6.27-34.06c-0.075-0.406,0.178-0.768,0.589-0.844
				c7.483-1.387,11.223-2.139,18.674-3.763c0.354-0.078,0.782,0.144,0.87,0.547c0.522,2.4,0.791,3.601,1.313,6
				c0.088,0.403-0.208,0.785-0.567,0.864c-4.788,1.043-7.188,1.542-11.988,2.489C363.93,155.73,364.188,157.036,364.702,159.649z"/>
			<path fill="#29374F" d="M407.791,153.451c0,0,0.294,0.67-0.173,1.437c-0.887,1.458-1.333,2.187-2.232,3.642
				c-0.053,0.057-0.08,0.084-0.132,0.141c3.472,4.443,5.23,6.654,8.786,11.053c0.202,0.319-0.188,0.8-0.563,0.902
				c-2.879,0.784-4.317,1.167-7.202,1.917c-0.435,0.112-0.899-0.142-1.151-0.45c-3.362-4.313-5.024-6.478-8.307-10.83
				c-0.976,0.242-1.458,0.361-2.435,0.6c1.193,4.873,1.792,7.309,2.986,12.182c0.086,0.351-0.153,0.781-0.585,0.887
				c-2.57,0.626-3.856,0.933-6.434,1.532c-0.379,0.088-0.839-0.177-0.92-0.529c-2.604-11.246-5.208-22.493-7.813-33.739
				c-0.093-0.402,0.192-0.788,0.552-0.871c6.494-1.512,9.733-2.313,16.194-4.006c0,0,0.685-0.285,1.453,0.153
				c1.459,0.832,2.188,1.244,3.659,2.067c0.771,0.433,0.891,1.257,0.891,1.257C405.738,145.858,406.421,148.389,407.791,153.451z
				 M392.578,154.494c2.194-0.538,3.29-0.812,5.479-1.369c0.055-0.013,0.208-0.053,0.326-0.243c0.252-0.405,0.378-0.608,0.629-1.013
				c0.156-0.253,0.056-0.44,0.056-0.44c-0.483-1.88-0.728-2.819-1.207-4.699c0,0,0.001-0.213-0.26-0.36
				c-0.408-0.235-0.614-0.352-1.026-0.588c-0.257-0.147-0.449-0.045-0.449-0.045c-2.146,0.545-3.214,0.813-5.36,1.338
				C391.488,150.042,391.851,151.526,392.578,154.494z"/>
		</g>
	</g>
	<g>
		<polygon fill="#29374F" points="340.412,102.988 341.261,101.469 347.132,90.515 211,90.515 207.235,90.515 139.031,90.515
			144.903,101.469 145.751,102.988 144.903,104.992 139.031,116.515 207.235,116.515 211,116.515 347.132,116.515 341.261,104.992
					"/>
		<path fill="#FFFFFF" d="M347.948,117.015H138.215l6.242-12.25l0.738-1.747l-0.729-1.306l-6.271-11.698h209.771l-7,13.004
			l0.753,1.779L347.948,117.015z M139.847,116.015h206.469l-5.5-10.795l-0.959-2.261l0.968-1.733l5.472-10.21h-206.43l6.44,11.943
			l-0.943,2.229L139.847,116.015z"/>
	</g>
	<g>
		<path fill="#FFFFFF" d="M233.085,95.871v3.193h1.598l-0.001,3.193h-4.629v-3.193h1.595v-3.193h-6.385l-0.001,3.193h0.001h1.555
			l0.002,0.002h0.045v9.576h-1.602v3.193h0.005v0.002l6.38-0.002l0.001-3.193h-0.001h-1.592v-3.191h4.627v3.191h-1.599v3.193h6.386
			v-3.193h-1.574v-9.578h1.575v-3.193v-0.003L233.085,95.871z"/>
		<path fill="#FFFFFF" d="M244.077,95.871v3.192v0.001l1.595-0.001l0.001,9.578l-1.596,0.001l-0.001,0.091l0.001,0.001v3.078v0.022
			h0.022l0.001,0.001l11.15-0.001v-4.789v-0.039h-3.191v1.588l-0.002,0.002v0.045l-3.029,0.001h-0.16v-3.193h3.191h0.001v-0.182
			l-0.001-0.001v-3.009h-3.192v-3.193h3.192v1.596h3.191v-4.791L244.077,95.871z"/>
		<polygon fill="#FFFFFF" points="278.876,107.042 278.876,108.64 275.685,108.64 275.685,99.058 277.278,99.058 277.281,95.871
			277.278,95.871 277.278,95.87 270.895,95.87 270.895,99.058 270.896,99.058 270.896,99.064 272.4,99.064 272.487,99.064
			272.491,108.641 270.894,108.641 270.894,111.834 282.071,111.834 282.071,107.042 		"/>
		<path fill="#FFFFFF" d="M324.69,100.66v-4.791l-11.173,0.002v2.965v0.228h1.598l-0.002,9.577l-1.596,0.001v3.17v0.022h0.024
			l0.001,0.001l11.139-0.001l-0.009-4.789H321.5v0.024v1.523l-0.004,0.004v0.045l-3.025,0.001h-0.16v-3.193h3.189h0.003v-0.182
			l-0.003-0.003v-3.007h-3.192v-3.193h3.192v1.596H324.69L324.69,100.66z"/>
		<polygon fill="#FFFFFF" points="165.406,99.064 165.422,99.064 167,99.064 167,108.63 165.406,108.63 165.406,111.835
			165.422,111.835 171.808,111.835 171.808,111.834 171.808,111.766 171.808,108.665 171.808,108.63 170.212,108.63 170.212,99.064
			171.808,99.064 171.808,95.859 165.406,95.859 		"/>
		<polygon fill="#FFFFFF" points="185.835,99.083 187.428,99.083 187.428,105.779 181.225,95.869 176.436,95.869 176.436,99.062
			178.032,99.062 178.032,108.642 176.437,108.642 176.437,111.835 182.823,111.835 182.823,108.642 181.228,108.642
			181.228,108.118 181.226,108.12 181.226,102.53 181.226,101.96 181.226,101.911 187.45,111.834 190.643,111.834 190.644,99.083
			192.241,99.083 192.241,96.259 192.241,95.871 192.241,95.859 185.835,95.859 		"/>
		<polygon fill="#FFFFFF" points="207.884,95.869 207.884,100.658 211.077,100.658 211.077,99.064 212.673,99.064 212.674,108.632
			211.078,108.642 211.078,111.828 217.463,111.835 217.463,111.828 217.463,108.642 215.869,108.642 215.867,99.154
			215.867,99.064 217.463,99.064 217.463,100.66 220.656,100.66 220.656,95.871 220.656,95.869 		"/>
		<polygon fill="#FFFFFF" points="293.086,95.871 286.7,95.871 286.7,99.064 288.297,99.064 288.296,108.64 286.699,108.64
			286.699,111.834 286.7,111.834 286.7,111.835 293.085,111.834 293.085,108.665 293.085,108.64 291.488,108.64 291.489,99.064
			293.086,99.064 		"/>
		<polygon fill="#FFFFFF" points="297.719,95.871 297.715,99.064 297.719,99.064 299.312,99.066 299.312,108.642 297.715,108.642
			297.715,111.835 304.101,111.835 304.101,108.642 302.504,108.642 302.504,105.449 305.696,105.449 305.696,102.257
			302.504,102.257 302.511,99.065 305.696,99.065 305.696,100.66 305.7,100.66 305.7,100.662 308.89,100.66 308.898,95.871
			308.887,95.871 		"/>
	</g>
</g>
<g id="quote">
	<g id="quote-left-brace">
		<path fill="#29374F" d="M467,131.426c5,0,7-2.247,7-6.74v-24.237c0-5.374,4.045-9.935,9.615-9.935H484v6h-0.385
			c-1.661,0-3.615,2.273-3.615,3.935v24.237c0,4.984-2.151,8.306-6.059,9.868c3.904,1.666,6.059,4.888,6.059,9.872v24.237
			c0,1.662,1.954,3.853,3.615,3.853H484v6h-0.385c-5.569,0-9.615-4.479-9.615-9.853v-24.237c0-4.493-2-6.745-7-6.745V131.426z"/>
	</g>
	<g id="quote-right-brace">
		<path fill="#29374F" d="M963,137.686c-5,0-7,2.247-7,6.74v24.237c0,5.374-4.643,9.852-10.211,9.852H945v-6h0.789
			c1.66,0,4.211-2.191,4.211-3.852v-24.237c0-4.984,2.15-8.306,6.059-9.868c-3.904-1.666-6.059-4.888-6.059-9.872V100.45
			c0-1.662-2.551-3.935-4.211-3.935H945v-6h0.789c5.568,0,10.211,4.561,10.211,9.935v24.237c0,4.493,2,6.745,7,6.745V137.686z"/>
	</g>
	<rect x="520.464" y="100.843" fill="none" width="390.036" height="73.74"/>
	<text id="quote-text" transform="matrix(1 0 0 1 532.6299 111.8682)"><tspan x="0" y="0" fill="#29374F" font-family="'LeagueGothic'" font-size="15">EVERY DAY THOUSANDS OF WEB twoERS HIT THE GRIND SPENDING COUNTLESS HOURS IN </tspan><tspan x="-11.985" y="26.8" fill="#29374F" font-family="'LeagueGothic'" font-size="15">FRONT OF THEIR COMPUTER MONITORS. BUT WHAT MAKES THEM TICK? WHAT IS A TYPICAL DAY IN </tspan><tspan x="25.709" y="53.6" fill="#29374F" font-family="'LeagueGothic'" font-size="15">THE LIFE OF A WEB twoER? GET READY BECAUSE WE’RE ABOUT TO FIND OUT!</tspan></text>
</g>
<g id="timeline">
	<g id="one">
		<rect x="505.545" y="429" fill="#5B4F35" width="17" height="120"/>
		<polyline fill="#5B4F35" points="509.334,474.132 497.023,483.456 514.566,494.415 		"/>
		<g>
			<text transform="matrix(1 0 0 1 565.5449 494.2139)" fill="#5B4F35" font-family="'LeagueGothic'" font-size="28.2251">2017</text>
		</g>
		<g id="one-badge">
			<circle fill="#5B4F35" cx="311.581" cy="484.273" r="130.5"/>
			<g id="one-title">
				<text transform="matrix(1 0 0 1 284.416 403.2793)" fill="#FFFFFF" font-family="'LeagueGothic'" font-size="28.2251">TOUGH BEGINNINGS</text>
			</g>
			<g id="one-details">
				<rect x="219.11" y="530.174" fill="none" width="187" height="68"/>
				<text transform="matrix(1 0 0 1 219.7134 543.4023)" fill="#CEB995" font-family="'LeagueGothic'" font-size="18">twoERS DRINK AN AVERAGE OF 380 </text>
				<text transform="matrix(1 0 0 1 249.6372 565.0039)" fill="#CEB995" font-family="'LeagueGothic'" font-size="18">CUPS OF one PER YEAR</text>
			</g>
		</g>
	</g>
	<g id="two">
		<rect x="505.545" y="550" fill="#D1652F" width="17" height="120"/>
		<polyline fill="#D1652F" points="520.256,614.415 532.566,605.092 515.023,594.132 		"/>
		<text transform="matrix(1 0 0 1 413.2793 616.6328)" fill="#D1652F" font-family="'LeagueGothic'" font-size="28.2251">2018</text>
		<g id="two-badge">
			<circle fill="#D1652F" cx="711" cy="604.5" r="130.5"/>
			<g id="two-title">
				<text transform="matrix(1 0 0 1 682.4639 523.5059)" fill="#FFFFFF" font-family="'LeagueGothic'" font-size="28.2251">COMEBACK</text>
			</g>
			<g id="two-details">
				<rect x="616.468" y="650.4" fill="none" width="187" height="68"/>
				<text transform="matrix(1 0 0 1 630.1738 663.6289)" fill="#E8AD67" font-family="'LeagueGothic'" font-size="18">WORLDWIDE, A NEW WEB PAGE IS </text>
				<text transform="matrix(1 0 0 1 637.2568 685.2305)" fill="#E8AD67" font-family="'LeagueGothic'" font-size="18">twoED EVERY 0.4 SECONDS</text>
			</g>
		</g>
	</g>
	<g id="three">
		<rect x="505.545" y="674" fill="#B1C482" width="17" height="120"/>
		<polyline fill="#B1C482" points="509.334,731.133 497.023,740.455 514.566,751.415 		"/>
		<text transform="matrix(1 0 0 1 558.6953 745.7109)" fill="#B1C482" font-family="'LeagueGothic'" font-size="28.2251">2019</text>
		<g id="three-badge">
			<circle fill="#B1C482" cx="311" cy="730.5" r="130.5"/>
			<g id="three-title">
				<text transform="matrix(1 0 0 1 287.0991 691.5059)" fill="#FFFFFF" font-family="'LeagueGothic'" font-size="28.2251">THREE</text>
			</g>
			<g id="three-details">
				<rect x="215.893" y="818.4" fill="none" width="187" height="68"/>
				<text transform="matrix(1 0 0 1 226.1045 831.6289)" fill="#EBF4CE" font-family="'LeagueGothic'" font-size="18">64% OF WEB twoERS CONSIDER</text>
				<text transform="matrix(1 0 0 1 244.9507 853.2305)" fill="#EBF4CE" font-family="'LeagueGothic'" font-size="18">THEMSELVES SELF-TAUGHT</text>
			</g>
		</g>
	</g>
	<g id="complain">
		<rect x="505.545" y="800" fill="#6DBACC" width="17" height="120"/>
		<polyline fill="#6DBACC" points="520.256,820.415 532.566,811.092 515.023,800.133 		"/>
		<text transform="matrix(1 0 0 1 407.2793 867.6328)" fill="#6DBACC" font-family="'LeagueGothic'" font-size="28.2251">2020</text>
		<g id="complain-badge">
			<circle fill="#6DBACC" cx="717" cy="820.5" r="130.5"/>
			<g id="complain-title">
				<text transform="matrix(1 0 0 1 680.0996 916.1816)" fill="#FFFFFF" font-family="'LeagueGothic'" font-size="24.3935">COMPLAIN</text>
				<text transform="matrix(1 0 0 1 684.5508 940.2686)" fill="#FFFFFF" font-family="'LeagueGothic'" font-size="24.3935">ABOUT IE</text>
			</g>
			<g id="complain-details">
				<rect x="622.892" y="1046.4" fill="none" width="187" height="68"/>
				<text transform="matrix(1 0 0 1 637.332 1059.6289)" fill="#B9E4EA" font-family="'LeagueGothic'" font-size="18">BROWSER QUIRKS CAN INCREASE </text>
				<text transform="matrix(1 0 0 1 646.9707 1081.2305)" fill="#B9E4EA" font-family="'LeagueGothic'" font-size="18">PRODUCTION TIME UP TO 71%</text>
			</g>
		</g>
	</g>
	<g id="beer">
		<rect x="505.545" y="1143" fill="#EAB83D" width="17" height="110"/>
		<polyline fill="#EAB83D" points="509.334,1190.133 497.023,1199.455 514.566,1210.415 		"/>
		<text transform="matrix(1 0 0 1 558.6953 1206.0137)" fill="#EAB83D" font-family="'LeagueGothic'" font-size="28.2251">3PM</text>
		<g id="beer-badge">
			<circle fill="#EAB83D" cx="313" cy="1190.5" r="130.5"/>
			<g id="beer-title">
				<text transform="matrix(1 0 0 1 290.5708 1109.5059)" fill="#FFFFFF" font-family="'LeagueGothic'" font-size="28.2251">BEER</text>
			</g>
			<g id="beer-details">
				<rect x="217.893" y="1236.4" fill="none" width="187" height="68"/>
				<text transform="matrix(1 0 0 1 236.0879 1249.6289)" fill="#EBF4CE" font-family="'LeagueGothic'" font-size="18">HEINEKEN IS THE #1 CHOICE OF</text>
				<text transform="matrix(1 0 0 1 240.1099 1271.2305)" fill="#EBF4CE" font-family="'LeagueGothic'" font-size="18">BEER AMONG WEB twoERS</text>
			</g>
		</g>
	</g>
</g>
</svg>
